{
  "accessors": [
    {
      "bufferView": 2,
      "componentType": 5126,
      "count": 5249,
      "max": [
        92.77549743652344,
        199.12533569335938,
        18.064193725585938
      ],
      "min": [
        -92.77449035644531,
        -0.09880220890045166,
        -11.88780689239502
      ],
      "type": "VEC3"
    },
    {
      "bufferView": 2,
      "byteOffset": 62988,
      "componentType": 5126,
      "count": 5249,
      "type": "VEC3"
    },
    {
      "bufferView": 1,
      "componentType": 5126,
      "count": 5249,
      "type": "VEC2"
    },
    {
      "bufferView": 0,
      "componentType": 5125,
      "count": 31482,
      "type": "SCALAR"
    },
    {
      "bufferView": 2,
      "byteOffset": 125976,
      "componentType": 5126,
      "count": 663,
      "max": [
        5.751455783843994,
        188.30616760253906,
        12.150273323059082
      ],
      "min": [
        1.2908456325531006,
        183.80615234375,
        7.506268501281738
      ],
      "type": "VEC3"
    },
    {
      "bufferView": 2,
      "byteOffset": 133932,
      "componentType": 5126,
      "count": 663,
      "type": "VEC3"
    },
    {
      "bufferView": 1,
      "byteOffset": 41992,
      "componentType": 5126,
      "count": 663,
      "type": "VEC2"
    },
    {
      "bufferView": 0,
      "byteOffset": 125928,
      "componentType": 5125,
      "count": 3780,
      "type": "SCALAR"
    },
    {
      "bufferView": 2,
      "byteOffset": 141888,
      "componentType": 5126,
      "count": 2580,
      "max": [
        -1.2252333164215088,
        188.2650604248047,
        12.150290489196777
      ],
      "min": [
        -5.666299819946289,
        183.81199645996094,
        7.506176471710205
      ],
      "type": "VEC3"
    },
    {
      "bufferView": 2,
      "byteOffset": 172848,
      "componentType": 5126,
      "count": 2580,
      "type": "VEC3"
    },
    {
      "bufferView": 1,
      "byteOffset": 47296,
      "componentType": 5126,
      "count": 2580,
      "type": "VEC2"
    },
    {
      "bufferView": 0,
      "byteOffset": 141048,
      "componentType": 5125,
      "count": 3780,
      "type": "SCALAR"
    }
  ],
  "asset": {
    "generator": "fab-model-conversion",
    "version": "2.0"
  },
  "bufferViews": [
    {
      "buffer": 0,
      "byteLength": 156168,
      "target": 34963
    },
    {
      "buffer": 0,
      "byteLength": 67936,
      "byteOffset": 156168,
      "byteStride": 8,
      "target": 34962
    },
    {
      "buffer": 0,
      "byteLength": 203808,
      "byteOffset": 224104,
      "byteStride": 12,
      "target": 34962
    }
  ],
  "buffers": [
    {
      "byteLength": 427912,
      "uri": "scene.bin"
    }
  ],
  "materials": [
    {
      "doubleSided": true,
      "name": "Girl_Base_SG",
      "pbrMetallicRoughness": {
        "baseColorFactor": [
          0.6994024055223932,
          0.6994024055223932,
          0.6994024055223932,
          1.0
        ],
        "metallicFactor": 0.0,
        "roughnessFactor": 0.6
      }
    }
  ],
  "meshes": [
    {
      "name": "Body_Girl_Base_SG_0",
      "primitives": [
        {
          "attributes": {
            "NORMAL": 1,
            "POSITION": 0,
            "TEXCOORD_0": 2
          },
          "indices": 3,
          "material": 0,
          "mode": 4
        }
      ]
    },
    {
      "name": "Eye_L_Girl_Base_SG_0",
      "primitives": [
        {
          "attributes": {
            "NORMAL": 5,
            "POSITION": 4,
            "TEXCOORD_0": 6
          },
          "indices": 7,
          "material": 0,
          "mode": 4
        }
      ]
    },
    {
      "name": "Eye_R_Girl_Base_SG_0",
      "primitives": [
        {
          "attributes": {
            "NORMAL": 9,
            "POSITION": 8,
            "TEXCOORD_0": 10
          },
          "indices": 11,
          "material": 0,
          "mode": 4
        }
      ]
    }
  ],
  "nodes": [
    {
      "children": [
        1
      ],
      "matrix": [
        1.0,
        0.0,
        0.0,
        0.0,
        0.0,
        2.220446049250313e-16,
        -1.0,
        0.0,
        0.0,
        1.0,
        2.220446049250313e-16,
        0.0,
        0.0,
        0.0,
        0.0,
        1.0
      ],
      "name": "Sketchfab_model"
    },
    {
      "children": [
        2
      ],
      "matrix": [
        0.009999999776482582,
        0.0,
        0.0,
        0.0,
        0.0,
        0.0,
        0.009999999776482582,
        0.0,
        0.0,
        -0.009999999776482582,
        0.0,
        0.0,
        0.0,
        0.0,
        0.0,
        1.0
      ],
      "name": "1d6b5385b50241319fbd8da501d41d7a.fbx"
    },
    {
      "children": [
        3
      ],
      "name": "RootNode"
    },
    {
      "children": [
        4,
        6,
        8
      ],
      "name": "Girl_Base"
    },
    {
      "children": [
        5
      ],
      "name": "Body"
    },
    {
      "mesh": 0,
      "name": "Body_Girl_Base_SG_0"
    },
    {
      "children": [
        7
      ],
      "name": "Eye_L"
    },
    {
      "mesh": 1,
      "name": "Eye_L_Girl_Base_SG_0"
    },
    {
      "children": [
        9
      ],
      "name": "Eye_R"
    },
    {
      "mesh": 2,
      "name": "Eye_R_Girl_Base_SG_0"
    }
  ],
  "scene": 0,
  "scenes": [
    {
      "name": "Sketchfab_Scene",
      "nodes": [
        0
      ]
    }
  ]
}
